<svg id="Слой_1" data-name="Слой 1" xmlns="http://www.w3.org/2000/svg" xmlns:xlink="http://www.w3.org/1999/xlink" viewBox="0 0 94.56 94.56"><defs><style>.cls-1{fill:url(#Безымянный_градиент_4);}.cls-2{fill:url(#Безымянный_градиент_4-2);}.cls-3{fill:url(#Безымянный_градиент_4-3);}.cls-4{fill:url(#Безымянный_градиент_4-4);}.cls-5{fill:url(#Безымянный_градиент_4-5);}.cls-6{fill:url(#Безымянный_градиент_4-6);}.cls-7{fill:url(#Безымянный_градиент_4-7);}.cls-8{fill:url(#Безымянный_градиент_4-8);}.cls-9{fill:url(#Безымянный_градиент_4-9);}</style><radialGradient id="Безымянный_градиент_4" cx="48.92" cy="48.91" r="52.68" gradientTransform="translate(-9.14 53.64) rotate(-45)" gradientUnits="userSpaceOnUse"><stop offset="0.59" stop-color="#ff9100"/><stop offset="1" stop-color="#a42b00"/></radialGradient><radialGradient id="Безымянный_градиент_4-2" cx="48.92" cy="48.91" r="52.68" gradientTransform="translate(60.49 144.55) rotate(-135)" xlink:href="#Безымянный_градиент_4"/><radialGradient id="Безымянный_градиент_4-3" cx="48.92" cy="48.91" r="52.68" gradientTransform="translate(107.61 74.92) rotate(135)" xlink:href="#Безымянный_градиент_4"/><radialGradient id="Безымянный_градиент_4-4" cx="48.92" cy="48.91" r="52.68" gradientTransform="translate(37.98 -15.99) rotate(45)" xlink:href="#Безымянный_градиент_4"/><radialGradient id="Безымянный_градиент_4-5" cx="48.92" cy="48.91" r="52.68" gradientTransform="translate(-10.63 72.16) rotate(-45)" xlink:href="#Безымянный_градиент_4"/><radialGradient id="Безымянный_градиент_4-6" cx="48.92" cy="48.91" r="52.68" gradientTransform="translate(-29.69 26.15) rotate(-45)" xlink:href="#Безымянный_градиент_4"/><radialGradient id="Безымянный_градиент_4-7" cx="48.92" cy="48.91" r="52.68" gradientTransform="translate(-43.16 58.68) rotate(-45)" xlink:href="#Безымянный_градиент_4"/><radialGradient id="Безымянный_градиент_4-8" cx="48.92" cy="48.91" r="52.68" gradientTransform="translate(-20.09 49.11) rotate(-45)" xlink:href="#Безымянный_градиент_4"/><radialGradient id="Безымянный_градиент_4-9" cx="48.92" cy="48.91" r="52.68" gradientTransform="translate(2.84 39.63) rotate(-45)" xlink:href="#Безымянный_градиент_4"/></defs><title>iskra_znak</title><rect class="cls-1" x="53.95" y="31.62" width="12.47" height="12.47" transform="translate(42.42 -33.1) rotate(45)"/><rect class="cls-2" x="53.95" y="53.51" width="12.47" height="12.47" transform="translate(143.01 57.81) rotate(135)"/><rect class="cls-3" x="32.06" y="53.51" width="12.47" height="12.47" transform="translate(21.15 127.44) rotate(-135)"/><rect class="cls-4" x="32.06" y="31.62" width="12.47" height="12.47" transform="translate(-17.53 36.53) rotate(-45)"/><rect class="cls-5" x="71.36" y="38.48" width="20.86" height="20.86" transform="translate(56.57 -45.14) rotate(45)"/><rect class="cls-6" x="6.29" y="38.48" width="20.86" height="20.86" transform="translate(37.51 0.87) rotate(45)"/><rect class="cls-7" x="38.83" y="71.02" width="20.86" height="20.86" transform="translate(70.04 -12.61) rotate(45)"/><rect class="cls-8" x="45.77" y="45.34" width="6.93" height="6.93" transform="translate(46.95 -22.15) rotate(45)"/><rect class="cls-9" x="38.82" y="5.95" width="20.86" height="20.86" transform="translate(24.04 -31.66) rotate(45)"/></svg>