<svg id="Слой_1" data-name="Слой 1" xmlns="http://www.w3.org/2000/svg" xmlns:xlink="http://www.w3.org/1999/xlink" viewBox="0 0 1050.8 211.21"><defs><style>.cls-1{fill:#fff;}.cls-2{fill:#71c2ff;}.cls-3{fill:url(#Безымянный_градиент_19);}.cls-4{fill:url(#Безымянный_градиент_19-2);}.cls-5{fill:url(#Безымянный_градиент_19-3);}.cls-6{fill:url(#Безымянный_градиент_19-4);}.cls-7{fill:url(#Безымянный_градиент_19-5);}.cls-8{fill:url(#Безымянный_градиент_19-6);}.cls-9{fill:url(#Безымянный_градиент_19-7);}.cls-10{fill:url(#Безымянный_градиент_19-8);}.cls-11{fill:url(#Безымянный_градиент_19-9);}</style><radialGradient id="Безымянный_градиент_19" cx="668.6" cy="106.62" r="117.67" gradientTransform="translate(145.27 514.56) rotate(-45)" gradientUnits="userSpaceOnUse"><stop offset="0.28" stop-color="#ff9100"/><stop offset="0.88" stop-color="#a42b00"/></radialGradient><radialGradient id="Безымянный_градиент_19-2" cx="668.6" cy="106.62" r="117.67" gradientTransform="translate(1091.82 713.89) rotate(-135)" xlink:href="#Безымянный_градиент_19"/><radialGradient id="Безымянный_градиент_19-3" cx="668.6" cy="106.62" r="117.67" gradientTransform="translate(1193.36 -232.66) rotate(135)" xlink:href="#Безымянный_градиент_19"/><radialGradient id="Безымянный_градиент_19-4" cx="668.6" cy="106.62" r="117.67" gradientTransform="translate(246.81 -431.99) rotate(45)" xlink:href="#Безымянный_градиент_19"/><radialGradient id="Безымянный_градиент_19-5" cx="668.6" cy="106.62" r="117.67" gradientTransform="translate(141.94 555.91) rotate(-45)" xlink:href="#Безымянный_градиент_19"/><radialGradient id="Безымянный_градиент_19-6" cx="668.6" cy="106.62" r="117.67" gradientTransform="translate(99.37 453.15) rotate(-45)" xlink:href="#Безымянный_градиент_19"/><radialGradient id="Безымянный_градиент_19-7" cx="668.6" cy="106.62" r="117.67" gradientTransform="translate(69.27 525.82) rotate(-45)" xlink:href="#Безымянный_градиент_19"/><radialGradient id="Безымянный_градиент_19-8" cx="668.6" cy="106.62" r="117.67" gradientTransform="translate(120.82 504.43) rotate(-45)" xlink:href="#Безымянный_градиент_19"/><radialGradient id="Безымянный_градиент_19-9" cx="668.6" cy="106.62" r="117.67" gradientTransform="translate(172.03 483.25) rotate(-45)" xlink:href="#Безымянный_градиент_19"/></defs><title>iskra2</title><path class="cls-1" d="M1.38,167V45.64h25v79.08L85.27,45.64H106.8V167H82V87.43L22.39,167Z" transform="translate(-1.38 -1.02)"/><path class="cls-1" d="M139.62,151.78c-12.5-12-18.76-27.06-18.76-45.44,0-18.56,6.26-33.65,18.59-45.44,12.5-11.8,28.31-17.69,47.24-17.69a67.64,67.64,0,0,1,32.13,7.63V76a56.2,56.2,0,0,0-32-9.37c-11.64,0-21.19,3.82-29,11.27-7.64,7.46-11.47,16.83-11.47,28.45s4,21.16,11.81,28.61,17.72,11.1,29.7,11.1c13.2,0,24.32-3.47,33.35-10.58v25.15c-9.9,5.9-21.36,8.84-34.56,8.84C167.76,169.46,152.13,163.57,139.62,151.78Z" transform="translate(-1.38 -1.02)"/><path class="cls-1" d="M233.92,167V45.64h25V93.5l44.81-47.86h30.57l-51.59,55.67L343.16,167h-32l-52.28-56v56Z" transform="translate(-1.38 -1.02)"/><path class="cls-1" d="M347.85,167V45.64H401c13,0,23.45,3.46,30.92,10.23,7.64,6.76,11.46,15.43,11.46,26.36s-3.82,19.77-11.46,26.53C424.44,115.53,414,119,401,119H372.86v48Zm25-69.38h26.4c12,0,19.1-5.37,19.1-15.08s-7.12-15.09-19.1-15.09h-26.4Z" transform="translate(-1.38 -1.02)"/><path class="cls-1" d="M429.47,167l52.11-122.1h24L557.65,167H531.07l-12-28.1H467.68l-12,28.1Zm46-48.74h35.6L493.39,76.16Z" transform="translate(-1.38 -1.02)"/><path class="cls-2" d="M847.83,136.25q-12.52.21-21.22-3.16a34.63,34.63,0,0,1-14-9.55A39.12,39.12,0,0,1,804.74,109,67,67,0,0,1,802,90.81a60.69,60.69,0,0,1,2.25-18.13A37.69,37.69,0,0,1,812,58.34a35.51,35.51,0,0,1,13.79-9.51q8.49-3.4,20.44-3.62l56.74-1q12-.21,20.55,2.91a35.37,35.37,0,0,1,14.11,9,37.63,37.63,0,0,1,8.22,14.07,60.72,60.72,0,0,1,2.88,18,66.76,66.76,0,0,1-2.06,18.3,39.31,39.31,0,0,1-7.33,14.78,34.79,34.79,0,0,1-13.68,10q-8.58,3.69-21.1,3.9l-14.61.25.55,31.59-27.52.48L862.44,136Zm13.46-66.07-15.37.27a13.55,13.55,0,0,0-4.72,1.23,17.62,17.62,0,0,0-5.35,3.63,21.25,21.25,0,0,0-4.35,6.25,19.55,19.55,0,0,0-1.75,8.94q.36,9.18,5.2,14.91A14.8,14.8,0,0,0,847,111l15-.27Zm28.23,40.1,15-.26a14.77,14.77,0,0,0,11.85-6Q921,98.08,921,88.91A19.71,19.71,0,0,0,919,80a21.45,21.45,0,0,0-4.57-6.1,17.71,17.71,0,0,0-5.47-3.43,13.12,13.12,0,0,0-4.76-1.06l-15.37.26Z" transform="translate(-1.38 -1.02)"/><path class="cls-2" d="M1052.18,141.76V167H911.81V141.76h12.36l44.5-97.47H995l44.5,97.47ZM981.73,75.19l-29.66,66.57h59.32Z" transform="translate(-1.38 -1.02)"/><rect class="cls-3" x="679.83" y="68" width="27.85" height="27.85" transform="translate(259.75 -467.58) rotate(45)"/><rect class="cls-4" x="679.83" y="116.9" width="27.85" height="27.85" transform="translate(1275.45 -268.25) rotate(135)"/><rect class="cls-5" x="630.94" y="116.9" width="27.85" height="27.85" transform="translate(1006.97 678.3) rotate(-135)"/><rect class="cls-6" x="630.94" y="68" width="27.85" height="27.85" transform="translate(129.57 478.97) rotate(-45)"/><rect class="cls-7" x="718.72" y="83.33" width="46.59" height="46.59" transform="translate(291.35 -494.47) rotate(45)"/><rect class="cls-8" x="573.39" y="83.33" width="46.59" height="46.59" transform="translate(248.78 -391.71) rotate(45)"/><rect class="cls-9" x="646.06" y="155.99" width="46.59" height="46.59" transform="translate(321.44 -421.81) rotate(45)"/><rect class="cls-10" x="661.58" y="98.64" width="15.47" height="15.47" transform="translate(269.88 -443.14) rotate(45)"/><rect class="cls-11" x="646.06" y="10.67" width="46.59" height="46.59" transform="translate(218.68 -464.37) rotate(45)"/></svg>