<svg id="Слой_1" data-name="Слой 1" xmlns="http://www.w3.org/2000/svg" xmlns:xlink="http://www.w3.org/1999/xlink" viewBox="0 0 211.21 211.21"><defs><style>.cls-1{fill:url(#Безымянный_градиент_19);}.cls-2{fill:url(#Безымянный_градиент_19-2);}.cls-3{fill:url(#Безымянный_градиент_19-3);}.cls-4{fill:url(#Безымянный_градиент_19-4);}.cls-5{fill:url(#Безымянный_градиент_19-5);}.cls-6{fill:url(#Безымянный_градиент_19-6);}.cls-7{fill:url(#Безымянный_градиент_19-7);}.cls-8{fill:url(#Безымянный_градиент_19-8);}.cls-9{fill:url(#Безымянный_градиент_19-9);}</style><radialGradient id="Безымянный_градиент_19" cx="105.93" cy="106.62" r="117.67" gradientTransform="translate(-19.54 116.69) rotate(-45)" gradientUnits="userSpaceOnUse"><stop offset="0.28" stop-color="#ff9100"/><stop offset="0.88" stop-color="#a42b00"/></radialGradient><radialGradient id="Безымянный_градиент_19-2" cx="105.93" cy="106.62" r="117.67" gradientTransform="translate(131.27 316.02) rotate(-135)" xlink:href="#Безымянный_градиент_19"/><radialGradient id="Безымянный_градиент_19-3" cx="105.93" cy="106.62" r="117.67" gradientTransform="translate(232.81 165.21) rotate(135)" xlink:href="#Безымянный_градиент_19"/><radialGradient id="Безымянный_градиент_19-4" cx="105.93" cy="106.62" r="117.67" gradientTransform="translate(82 -34.12) rotate(45)" xlink:href="#Безымянный_градиент_19"/><radialGradient id="Безымянный_градиент_19-5" cx="105.93" cy="106.62" r="117.67" gradientTransform="translate(-22.87 158.04) rotate(-45)" xlink:href="#Безымянный_градиент_19"/><radialGradient id="Безымянный_градиент_19-6" cx="105.93" cy="106.62" r="117.67" gradientTransform="translate(-65.43 55.28) rotate(-45)" xlink:href="#Безымянный_градиент_19"/><radialGradient id="Безымянный_градиент_19-7" cx="105.93" cy="106.62" r="117.67" gradientTransform="translate(-95.53 127.94) rotate(-45)" xlink:href="#Безымянный_градиент_19"/><radialGradient id="Безымянный_градиент_19-8" cx="105.93" cy="106.62" r="117.67" gradientTransform="translate(-43.99 106.56) rotate(-45)" xlink:href="#Безымянный_градиент_19"/><radialGradient id="Безымянный_градиент_19-9" cx="105.93" cy="106.62" r="117.67" gradientTransform="translate(7.23 85.38) rotate(-45)" xlink:href="#Безымянный_градиент_19"/></defs><title>iskra_7</title><rect class="cls-1" x="117.16" y="68" width="27.85" height="27.85" transform="translate(95.26 -69.71) rotate(45)"/><rect class="cls-2" x="117.16" y="116.9" width="27.85" height="27.85" transform="translate(315.21 129.62) rotate(135)"/><rect class="cls-3" x="68.26" y="116.9" width="27.85" height="27.85" transform="translate(46.73 280.42) rotate(-135)"/><rect class="cls-4" x="68.26" y="68" width="27.85" height="27.85" transform="translate(-34.93 81.09) rotate(-45)"/><rect class="cls-5" x="156.04" y="83.33" width="46.59" height="46.59" transform="translate(126.85 -96.6) rotate(45)"/><rect class="cls-6" x="10.72" y="83.33" width="46.59" height="46.59" transform="translate(84.29 6.16) rotate(45)"/><rect class="cls-7" x="83.38" y="155.99" width="46.59" height="46.59" transform="translate(156.95 -23.94) rotate(45)"/><rect class="cls-8" x="98.9" y="98.64" width="15.47" height="15.47" transform="translate(105.38 -45.26) rotate(45)"/><rect class="cls-9" x="83.38" y="10.67" width="46.59" height="46.59" transform="translate(54.19 -66.5) rotate(45)"/></svg>