<?xml version="1.0" encoding="utf-8"?>
<!-- Generator: Adobe Illustrator 23.0.6, SVG Export Plug-In . SVG Version: 6.00 Build 0)  -->
<svg version="1.1" id="Слой_1" xmlns="http://www.w3.org/2000/svg" xmlns:xlink="http://www.w3.org/1999/xlink" x="0px" y="0px"
	 viewBox="0 0 1050.8 211.2" style="enable-background:new 0 0 1050.8 211.2;" xml:space="preserve">
<style type="text/css">
	.st0{fill:#FFFFFF;}
	.st1{fill:#A6D4FF;}
	.st2{fill:url(#SVGID_1_);}
	.st3{fill:url(#SVGID_2_);}
	.st4{fill:url(#SVGID_3_);}
	.st5{fill:url(#SVGID_4_);}
	.st6{fill:url(#SVGID_5_);}
	.st7{fill:url(#SVGID_6_);}
	.st8{fill:url(#SVGID_7_);}
	.st9{fill:url(#SVGID_8_);}
	.st10{fill:url(#SVGID_9_);}
</style>
<title>iskra1</title>
<path class="st0" d="M0,166V44.6h25v79.1l58.9-79.1h21.5V166H80.6V86.4L21,166H0z"/>
<path class="st0" d="M138.2,150.8c-12.5-12-18.8-27.1-18.8-45.4c0-18.6,6.3-33.7,18.6-45.4c12.5-11.8,28.3-17.7,47.2-17.7
	c11.2-0.2,22.2,2.5,32.1,7.6V75c-9.5-6.3-20.6-9.6-32-9.4c-11.6,0-21.2,3.8-29,11.3c-7.6,7.5-11.5,16.8-11.5,28.4s4,21.2,11.8,28.6
	c7.8,7.4,17.7,11.1,29.7,11.1c13.2,0,24.3-3.5,33.3-10.6v25.1c-9.9,5.9-21.4,8.8-34.6,8.8C166.4,168.4,150.8,162.6,138.2,150.8z"/>
<path class="st0" d="M232.5,166V44.6h25v47.9l44.8-47.9h30.6l-51.6,55.7l60.5,65.7h-32l-52.3-56v56H232.5z"/>
<path class="st0" d="M346.5,166V44.6h53.1c13,0,23.5,3.5,30.9,10.2c7.6,6.8,11.5,15.4,11.5,26.4s-3.8,19.8-11.5,26.5
	c-7.5,6.8-17.9,10.2-30.9,10.2h-28.1v48H346.5z M371.5,96.6h26.4c12,0,19.1-5.4,19.1-15.1s-7.1-15.1-19.1-15.1h-26.4V96.6z"/>
<path class="st0" d="M428.1,166l52.1-122.1h24L556.3,166h-26.6l-12-28.1h-51.4l-12,28.1H428.1z M474.1,117.2h35.6L492,75.1
	L474.1,117.2z"/>
<path class="st1" d="M846.5,135.2c-8.3,0.1-15.4-0.9-21.2-3.2c-5.4-2-10.2-5.3-14-9.5c-3.6-4.2-6.3-9.2-7.9-14.5
	c-1.7-5.9-2.7-12-2.7-18.2c-0.2-6.1,0.6-12.2,2.3-18.1c1.5-5.3,4.2-10.2,7.8-14.3c3.8-4.2,8.5-7.5,13.8-9.5
	c5.7-2.3,12.5-3.5,20.4-3.6l56.7-1c8-0.1,14.9,0.8,20.5,2.9c5.4,1.8,10.2,4.9,14.1,9c3.7,4,6.5,8.8,8.2,14.1
	c1.9,5.8,2.8,11.9,2.9,18c0.2,6.2-0.5,12.3-2.1,18.3c-1.4,5.4-3.9,10.4-7.3,14.8c-3.7,4.4-8.4,7.8-13.7,10
	c-5.7,2.5-12.8,3.8-21.1,3.9l-14.6,0.3l0.5,31.6l-27.5,0.5l-0.5-31.5L846.5,135.2z M859.9,69.2l-15.4,0.3c-1.6,0.1-3.2,0.5-4.7,1.2
	c-2,0.9-3.8,2.1-5.3,3.6c-1.8,1.8-3.3,3.9-4.3,6.3c-1.3,2.8-1.9,5.9-1.8,8.9c0.2,6.1,2,11.1,5.2,14.9c2.9,3.7,7.4,5.7,12,5.6l15-0.3
	L859.9,69.2z M888.1,109.3l15-0.3c4.7,0,9.1-2.2,11.8-6c3.1-4,4.6-9,4.6-15.1c0-3.1-0.6-6.1-2-8.9c-1.1-2.3-2.7-4.4-4.6-6.1
	c-1.6-1.5-3.5-2.6-5.5-3.4c-1.5-0.6-3.1-1-4.8-1.1l-15.4,0.3L888.1,109.3z"/>
<path class="st1" d="M1050.8,140.7V166H910.4v-25.2h12.4l44.5-97.5h26.3l44.5,97.5H1050.8z M980.3,74.2l-29.7,66.6h59.3L980.3,74.2z
	"/>
<g>
	<radialGradient id="SVGID_1_" cx="670.7527" cy="105.5002" r="117.5519" gradientUnits="userSpaceOnUse">
		<stop  offset="0.5893" style="stop-color:#FF9100"/>
		<stop  offset="1" style="stop-color:#A42B00"/>
	</radialGradient>
	<polygon class="st2" points="695.9,100.5 676.2,80.8 695.9,61.2 715.6,80.8 	"/>
	<radialGradient id="SVGID_2_" cx="670.7527" cy="105.5002" r="117.5519" gradientUnits="userSpaceOnUse">
		<stop  offset="0.5893" style="stop-color:#FF9100"/>
		<stop  offset="1" style="stop-color:#A42B00"/>
	</radialGradient>
	<polygon class="st3" points="676.2,129.7 695.9,110 715.6,129.7 695.9,149.3 	"/>
	<radialGradient id="SVGID_3_" cx="670.7527" cy="105.5002" r="117.5519" gradientUnits="userSpaceOnUse">
		<stop  offset="0.5893" style="stop-color:#FF9100"/>
		<stop  offset="1" style="stop-color:#A42B00"/>
	</radialGradient>
	<polygon class="st4" points="647,110 666.7,129.7 647,149.3 627.4,129.7 	"/>
	<radialGradient id="SVGID_4_" cx="670.7527" cy="105.5002" r="117.5519" gradientUnits="userSpaceOnUse">
		<stop  offset="0.5893" style="stop-color:#FF9100"/>
		<stop  offset="1" style="stop-color:#A42B00"/>
	</radialGradient>
	<polygon class="st5" points="666.7,80.8 647,100.5 627.4,80.8 647,61.2 	"/>
	<radialGradient id="SVGID_5_" cx="670.7527" cy="105.5002" r="117.5519" gradientUnits="userSpaceOnUse">
		<stop  offset="0.5893" style="stop-color:#FF9100"/>
		<stop  offset="1" style="stop-color:#A42B00"/>
	</radialGradient>
	<polygon class="st6" points="744.1,138.4 711.2,105.5 744.1,72.6 777,105.5 	"/>
	<radialGradient id="SVGID_6_" cx="670.7527" cy="105.4998" r="117.5523" gradientUnits="userSpaceOnUse">
		<stop  offset="0.5893" style="stop-color:#FF9100"/>
		<stop  offset="1" style="stop-color:#A42B00"/>
	</radialGradient>
	<polygon class="st7" points="598.9,138.4 566,105.5 598.9,72.6 631.8,105.5 	"/>
	<radialGradient id="SVGID_7_" cx="670.7527" cy="105.5002" r="117.5519" gradientUnits="userSpaceOnUse">
		<stop  offset="0.5893" style="stop-color:#FF9100"/>
		<stop  offset="1" style="stop-color:#A42B00"/>
	</radialGradient>
	<polygon class="st8" points="671.5,211 638.6,178.1 671.5,145.2 704.4,178.1 	"/>
	<radialGradient id="SVGID_8_" cx="670.7527" cy="105.5002" r="117.5519" gradientUnits="userSpaceOnUse">
		<stop  offset="0.5893" style="stop-color:#FF9100"/>
		<stop  offset="1" style="stop-color:#A42B00"/>
	</radialGradient>
	<polygon class="st9" points="671.5,116.2 660.5,105.3 671.5,94.3 682.4,105.3 	"/>
	<radialGradient id="SVGID_9_" cx="670.7527" cy="105.5002" r="117.5519" gradientUnits="userSpaceOnUse">
		<stop  offset="0.5893" style="stop-color:#FF9100"/>
		<stop  offset="1" style="stop-color:#A42B00"/>
	</radialGradient>
	<polygon class="st10" points="671.5,65.8 638.6,32.9 671.5,0 704.4,32.9 	"/>
</g>
</svg>
